<?xml version="1.0" standalone="no"?>
<!DOCTYPE svg PUBLIC "-//W3C//DTD SVG 20010904//EN"
 "http://www.w3.org/TR/2001/REC-SVG-20010904/DTD/svg10.dtd">
<svg version="1.0" xmlns="http://www.w3.org/2000/svg"
 width="8000.000000pt" height="8000.000000pt" viewBox="0 0 8000.000000 8000.000000"
 preserveAspectRatio="xMidYMid meet">
<metadata>
Created by potrace 1.15, written by Peter Selinger 2001-2017
</metadata>
<g transform="translate(0.000000,8000.000000) scale(0.100000,-0.100000)"
fill="#000000" stroke="none">
<path d="M52660 68604 c-460 -39 -734 -118 -1022 -293 -233 -141 -792 -655
-1218 -1121 -1099 -1202 -1930 -2362 -2870 -4005 -1109 -1938 -2019 -4068
-2685 -6280 -382 -1271 -888 -3342 -1245 -5093 l-88 -434 -79 -81 c-43 -45
-115 -125 -158 -177 -525 -628 -1643 -1807 -1930 -2034 -354 -280 -740 -480
-1059 -548 -147 -31 -397 -31 -555 0 -416 83 -809 304 -1079 605 -249 278
-464 756 -562 1247 -79 395 -80 604 -5 885 32 118 49 263 41 348 -3 37 -17
135 -31 217 -29 178 -51 378 -65 590 -30 452 -109 789 -251 1073 -170 341
-400 563 -775 750 -326 163 -632 258 -974 303 -191 25 -538 15 -721 -20 -453
-86 -855 -285 -1310 -648 -383 -305 -752 -665 -1042 -1016 -636 -769 -1158
-1802 -1498 -2967 -140 -479 -179 -701 -179 -1026 0 -321 50 -563 166 -808
133 -280 289 -450 599 -653 326 -212 586 -311 896 -339 475 -44 1071 177 1579
585 295 237 1608 1431 2641 2404 l66 62 59 -97 c87 -147 299 -461 409 -608
297 -395 652 -753 975 -982 306 -218 621 -366 950 -447 223 -55 352 -70 600
-70 223 0 358 14 545 55 524 116 1027 385 1565 837 256 215 668 646 1021 1067
l85 103 12 -252 c22 -462 66 -731 174 -1066 248 -769 742 -1342 1383 -1603
325 -133 711 -194 1063 -168 422 31 767 128 1318 371 705 313 1412 780 2084
1378 195 174 608 585 804 800 77 84 140 151 142 149 2 -1 -4 -79 -13 -172 -24
-252 -24 -715 0 -865 67 -421 223 -764 496 -1091 285 -341 687 -585 1127 -684
189 -43 322 -57 539 -57 228 -1 362 15 570 67 365 92 759 298 1138 597 140
110 366 342 457 467 264 364 444 595 619 791 295 330 644 661 885 840 418 310
965 519 1556 595 155 20 243 38 345 71 117 38 287 125 391 199 72 52 401 353
735 672 l37 35 -34 -169 c-114 -560 -342 -1947 -379 -2299 -33 -317 -6 -526
96 -734 44 -89 64 -117 133 -185 91 -90 167 -133 324 -184 155 -51 282 -73
417 -73 273 0 430 77 696 342 80 80 175 184 211 233 92 125 656 1031 1218
1957 881 1452 1608 2520 2348 3447 500 627 856 1028 1342 1512 316 314 881
833 1081 992 l36 28 21 -182 c89 -756 81 -1281 -33 -2187 -142 -1127 -279
-2042 -430 -2870 -255 -1398 -462 -2227 -756 -3028 -182 -495 -226 -696 -236
-1072 -10 -399 52 -746 203 -1134 313 -801 1011 -1605 1664 -1914 63 -30 131
-67 151 -83 50 -39 83 -118 74 -175 -36 -240 -470 -546 -795 -561 -68 -3 -109
0 -145 11 -55 17 -73 13 -29 -6 18 -8 75 -13 154 -13 114 1 133 3 217 32 323
112 586 345 609 539 8 65 -24 142 -75 183 -20 16 -88 53 -151 83 -390 185
-802 547 -1161 1023 -332 439 -559 926 -654 1400 -44 217 -58 388 -52 615 10
364 57 576 231 1049 365 990 647 2193 991 4231 46 272 84 486 84 475 2 -67
-165 -1311 -279 -2070 -90 -599 -119 -824 -154 -1175 -61 -604 -80 -1006 -81
-1680 0 -610 5 -704 56 -1005 95 -566 319 -1027 641 -1319 276 -250 628 -405
1067 -471 142 -21 469 -37 581 -28 l95 8 -102 72 c-160 114 -318 247 -443 373
-422 425 -690 956 -794 1580 -43 255 -51 361 -50 665 0 462 26 779 149 1825
257 2180 414 3694 535 5155 22 270 52 594 65 720 38 349 32 555 -20 761 -104
409 -349 665 -772 803 -176 58 -295 75 -472 68 -276 -12 -497 -87 -752 -256
-267 -177 -618 -522 -1415 -1386 -432 -470 -989 -1121 -1339 -1565 -547 -695
-874 -1170 -1645 -2390 -276 -437 -714 -1129 -974 -1536 l-471 -741 -9 56 c-5
31 -10 238 -10 461 -1 510 8 596 123 1110 70 316 142 687 196 1015 26 154 62
341 82 415 47 183 56 353 24 457 -29 96 -73 159 -148 209 -120 79 -341 129
-472 106 -170 -30 -265 -130 -337 -351 l-26 -81 -37 0 c-81 0 -236 -65 -341
-143 -79 -59 -278 -226 -401 -337 -371 -335 -843 -712 -1119 -892 -329 -216
-741 -377 -1236 -483 l-22 -5 -5 468 c-4 368 -8 489 -21 570 -95 588 -458 924
-1126 1042 -158 28 -451 38 -583 20 -99 -13 -221 -45 -307 -80 -340 -136 -660
-645 -660 -1050 0 -412 244 -718 793 -996 311 -157 420 -257 462 -422 13 -49
14 -73 6 -117 -13 -69 -49 -159 -92 -231 -44 -72 -377 -517 -494 -659 -321
-391 -1061 -1151 -1252 -1285 -229 -161 -451 -235 -627 -211 -128 18 -315 93
-443 178 -132 88 -264 242 -327 386 -62 141 -122 359 -151 552 -32 204 -17
624 36 1040 196 1536 861 2845 1999 3931 184 176 391 354 454 393 129 78 280
111 369 82 85 -28 190 -161 258 -326 91 -219 220 -375 374 -451 90 -44 164
-57 295 -52 87 3 113 8 154 29 111 56 141 140 141 389 -1 193 -13 256 -80 395
-91 189 -233 301 -510 403 -233 85 -477 145 -720 178 -178 23 -497 24 -620 1
-445 -83 -758 -287 -1350 -881 -504 -505 -893 -1024 -1191 -1591 -45 -86 -92
-155 -155 -231 -49 -60 -154 -192 -232 -294 -240 -312 -554 -691 -842 -1015
-474 -534 -1088 -1144 -1490 -1481 -577 -484 -1239 -913 -1915 -1242 -435
-211 -630 -275 -845 -275 -220 0 -406 60 -575 186 -228 170 -397 392 -523 687
-327 773 -361 1865 -86 2840 132 468 295 778 533 1015 105 104 152 141 351
275 1703 1147 3157 2471 4481 4080 1427 1734 2692 3592 3786 5560 496 891 768
1514 983 2250 183 624 260 1071 286 1653 44 970 -166 1671 -633 2112 -270 256
-617 411 -1053 470 -106 15 -481 27 -575 19z m530 -535 c100 -23 261 -97 363
-169 230 -158 381 -420 442 -765 22 -125 31 -529 16 -780 -42 -731 -163 -1338
-397 -1995 -270 -756 -588 -1463 -979 -2179 -1203 -2201 -2565 -4127 -4194
-5931 -777 -860 -2118 -2180 -2645 -2602 -55 -45 -139 -116 -186 -158 -105
-95 -150 -123 -242 -154 -69 -23 -292 -56 -303 -44 -3 3 31 169 75 369 489
2198 1154 4400 1820 6018 592 1442 1267 2740 2216 4268 951 1529 1494 2251
2354 3127 217 221 723 688 841 776 198 147 374 220 594 244 49 5 134 -5 225
-25z m-16740 -14103 c238 -43 401 -187 489 -433 42 -114 56 -207 82 -533 28
-355 20 -526 -38 -824 -54 -284 -134 -467 -350 -808 -786 -1240 -1763 -2291
-2943 -3164 -366 -271 -518 -369 -660 -423 -150 -58 -266 -65 -368 -21 -139
60 -270 287 -333 578 -26 124 -37 429 -20 594 112 1087 816 2509 1830 3698
243 285 612 639 866 831 331 251 646 410 935 473 197 43 383 55 510 32z"/>
<path d="M9627 64640 c-60 -15 -130 -55 -175 -100 -23 -23 -42 -46 -42 -51 0
-5 -17 -17 -37 -28 -52 -26 -98 -77 -125 -136 -22 -48 -22 -63 -29 -460 -4
-225 -10 -477 -14 -560 -15 -359 -37 -808 -65 -1330 -55 -1032 -62 -1215 -67
-1875 -6 -668 1 -966 33 -1394 17 -237 30 -286 95 -359 74 -84 206 -127 324
-106 99 18 166 64 208 144 27 51 27 129 4 460 -28 398 -39 965 -27 1475 11
510 25 831 75 1780 19 360 39 751 45 869 5 118 11 216 13 217 2 2 54 -112 117
-254 326 -736 645 -1368 738 -1465 57 -58 130 -90 221 -95 103 -6 135 9 325
152 588 443 1120 1001 1501 1575 41 60 51 70 57 55 8 -22 58 -379 163 -1184
222 -1699 342 -2458 511 -3255 58 -276 69 -311 109 -366 95 -131 321 -139 459
-18 122 108 130 180 57 519 -183 854 -285 1509 -551 3535 -84 644 -173 1269
-234 1642 -36 225 -48 280 -69 316 -54 91 -154 140 -287 141 -74 1 -93 -3
-142 -27 -71 -35 -105 -75 -148 -175 -313 -722 -895 -1492 -1535 -2028 -92
-77 -101 -82 -114 -66 -42 55 -298 599 -591 1257 -305 687 -479 1048 -534
1112 -20 23 -55 50 -79 62 -50 24 -137 34 -190 21z"/>
<path d="M33355 63930 c-254 -22 -835 -111 -1269 -196 -1571 -307 -3020 -769
-4416 -1409 -297 -137 -1017 -498 -1300 -653 -1076 -588 -2019 -1210 -2997
-1973 -94 -74 -215 -168 -269 -209 -289 -221 -902 -720 -1284 -1044 -1615
-1372 -3132 -2903 -4131 -4166 -553 -700 -1076 -1510 -1334 -2070 -440 -951
-512 -1705 -220 -2305 73 -150 159 -269 295 -405 172 -172 328 -285 601 -432
607 -328 1402 -595 2479 -832 484 -107 891 -183 2282 -430 1679 -299 2108
-381 2803 -536 1657 -370 3030 -853 4070 -1433 1126 -628 1974 -1379 2583
-2289 l92 -137 -198 -153 c-1757 -1359 -3492 -2973 -4813 -4478 -864 -984
-1851 -2272 -2319 -3024 -189 -305 -407 -719 -531 -1009 -256 -598 -427 -1465
-390 -1979 43 -606 271 -1022 721 -1318 437 -286 1177 -447 1897 -410 163 8
602 48 731 66 40 6 57 -5 32 -21 -5 -3 -74 -81 -153 -173 -451 -525 -892
-1124 -1274 -1732 -150 -239 -316 -520 -310 -526 2 -3 61 89 129 203 456 761
967 1469 1515 2098 l140 160 149 23 c82 13 225 39 318 58 93 18 171 33 172 31
1 -1 -117 -125 -263 -275 -146 -149 -260 -272 -255 -272 6 0 133 126 283 280
176 181 282 283 298 286 231 51 721 205 981 309 668 265 1380 668 1986 1123
392 295 660 528 1019 887 403 402 719 770 1051 1225 217 297 547 813 694 1085
35 63 74 112 190 231 277 286 489 582 659 923 222 442 374 976 425 1491 50
503 50 1395 1 1975 -8 94 -17 233 -20 310 -37 859 -184 1578 -483 2360 -122
320 -164 492 -164 675 -1 183 42 304 160 451 103 130 177 193 487 414 428 306
819 604 1302 991 354 285 516 408 748 569 300 208 659 433 943 590 67 37 124
71 127 75 7 11 -143 106 -239 151 -268 125 -429 128 -721 16 -232 -90 -243
-97 -1031 -620 -813 -540 -1002 -678 -1424 -1042 -96 -82 -209 -176 -251 -207
-247 -184 -473 -296 -668 -330 -135 -23 -291 27 -441 141 -103 78 -265 253
-400 431 -154 204 -338 390 -505 512 -586 428 -1054 749 -1350 928 -767 465
-1596 837 -2420 1089 -653 199 -1629 442 -2430 605 -826 168 -2113 378 -3400
556 -838 115 -1513 235 -2153 381 l-143 32 -118 123 c-346 358 -590 805 -691
1270 -164 756 -15 1639 446 2644 421 915 1146 1980 2081 3058 368 423 592 659
848 891 1256 1140 2529 2135 3965 3096 1053 705 2028 1244 3098 1711 1037 453
2125 759 3298 928 305 44 399 51 699 51 232 0 312 -4 400 -18 355 -59 580
-157 768 -336 166 -159 267 -365 307 -630 15 -106 13 -366 -5 -506 -83 -638
-506 -1683 -1002 -2478 -283 -454 -750 -1063 -1258 -1642 -361 -411 -837 -907
-1556 -1620 -1115 -1105 -2003 -1906 -3078 -2775 l-253 -204 29 -23 c40 -33
237 -129 310 -152 159 -50 298 -49 461 6 200 67 243 97 948 659 1507 1203
2785 2376 3739 3434 898 995 1493 1821 2188 3035 350 612 505 993 579 1420 20
113 22 165 22 395 0 296 -10 370 -80 579 -68 203 -220 469 -387 676 -102 127
-293 305 -413 385 -283 189 -638 315 -1034 365 -149 19 -550 27 -705 15z
m-12272 -7607 c-91 -105 -371 -461 -516 -656 -577 -773 -1035 -1538 -1320
-2207 -497 -1165 -566 -2186 -205 -2999 123 -280 309 -559 522 -788 l67 -72
-93 25 c-632 167 -1056 452 -1250 839 -121 240 -171 575 -138 916 62 628 315
1302 773 2059 597 986 1329 1973 2086 2813 118 130 162 172 74 70z m-2392
-1523 c-480 -641 -876 -1217 -1098 -1595 -355 -604 -578 -1168 -648 -1635 -37
-243 -30 -531 17 -735 208 -903 1191 -1538 2950 -1906 104 -21 366 -70 583
-109 339 -59 402 -73 454 -100 290 -146 937 -380 1481 -536 639 -183 1199
-309 2902 -648 728 -146 1487 -301 1688 -346 950 -212 1746 -437 2401 -678
168 -62 197 -76 334 -166 453 -297 906 -661 1289 -1035 459 -449 639 -664 746
-893 144 -309 83 -510 -251 -832 -72 -70 -136 -126 -143 -126 -7 0 -45 51 -84
114 -102 161 -273 399 -417 578 -1147 1432 -2844 2441 -5380 3199 -1003 300
-2123 563 -4045 950 -382 77 -832 169 -1000 205 -1131 242 -1986 477 -2570
708 -213 84 -577 260 -735 354 -343 205 -546 431 -639 712 -101 304 -88 682
40 1110 226 754 752 1671 1584 2761 242 318 733 929 746 929 2 0 -90 -126
-205 -280z m2641 -6120 c514 -83 1266 -188 1863 -261 1156 -139 2044 -312
3116 -605 896 -244 1573 -490 2299 -833 282 -134 842 -431 745 -396 -296 108
-807 268 -1185 372 -697 190 -1149 291 -2880 638 -613 123 -1212 244 -1330
270 -1104 237 -1894 460 -2550 720 -220 88 -301 124 -278 124 9 1 99 -12 200
-29z m11054 -5664 c151 -48 307 -176 394 -326 89 -153 152 -347 194 -605 36
-217 51 -358 92 -840 77 -916 54 -1485 -86 -2196 -70 -355 -148 -645 -275
-1024 -438 -1314 -1177 -2568 -2144 -3637 -76 -84 -147 -161 -158 -170 -10
-10 -114 -75 -229 -146 -115 -70 -222 -136 -239 -147 -32 -19 92 106 436 440
232 226 336 351 575 697 1133 1637 1660 3583 1458 5383 -90 806 -302 1565
-648 2318 l-36 77 48 35 c73 54 235 134 315 156 92 25 192 20 303 -15z m-618
-391 c347 -748 557 -1529 637 -2370 23 -235 31 -761 16 -1010 -96 -1576 -703
-3162 -1721 -4497 -137 -180 -176 -220 -591 -619 -228 -219 -304 -286 -380
-333 -814 -513 -1624 -1116 -2187 -1630 -73 -66 -154 -132 -180 -145 -107 -55
-309 -132 -434 -165 -128 -34 -258 -77 -568 -186 -169 -60 -359 -110 -532
-142 -163 -29 -425 -31 -573 -4 -336 61 -573 214 -816 526 -178 228 -272 425
-326 678 -24 115 -27 148 -27 347 -1 187 2 238 21 341 76 406 217 767 544
1386 569 1079 1163 1958 2058 3042 1051 1274 2078 2298 3963 3954 319 280 429
389 578 572 120 146 418 446 431 433 5 -5 44 -85 87 -178z m2461 -2775 c14
-488 -6 -1125 -45 -1430 -108 -847 -448 -1619 -962 -2185 -184 -203 -183 -207
-31 100 607 1225 959 2544 1006 3770 10 249 20 168 32 -255z m-4104 -5917
c-415 -408 -883 -802 -1270 -1068 l-70 -48 85 87 c47 48 275 272 507 498 l423
411 172 107 c95 58 214 132 263 163 50 31 92 56 95 56 3 0 -89 -93 -205 -206z
m-480 -251 c-49 -48 -286 -279 -526 -513 l-435 -425 -160 -100 c-214 -136
-414 -252 -619 -361 -192 -101 -426 -215 -432 -209 -4 4 261 239 432 382 417
348 916 716 1440 1061 138 91 279 185 315 208 36 24 67 44 70 44 3 0 -35 -39
-85 -87z"/>
<path d="M15483 61100 c-91 -19 -163 -77 -205 -165 -15 -33 -28 -72 -28 -87 0
-22 -6 -29 -27 -34 -186 -41 -319 -101 -443 -202 -192 -154 -322 -377 -382
-655 -31 -147 -31 -417 0 -564 127 -590 586 -939 1161 -883 414 41 826 260
1333 708 244 216 278 267 278 419 0 150 -79 431 -180 638 -254 521 -710 806
-1325 829 -77 3 -159 1 -182 -4z m858 -1008 c58 -87 108 -190 139 -288 l23
-71 -49 -45 c-337 -313 -673 -504 -945 -539 -144 -19 -265 19 -356 110 -121
121 -176 380 -123 586 35 136 125 271 210 315 124 64 314 50 555 -40 81 -30
177 -37 247 -16 61 18 136 70 157 110 l15 26 39 -37 c21 -21 61 -71 88 -111z"/>
<path d="M17613 60892 c-73 -26 -127 -64 -162 -116 -49 -71 -61 -136 -61 -341
0 -366 52 -690 163 -1021 68 -201 103 -283 215 -506 74 -149 115 -218 145
-248 97 -98 226 -125 352 -75 182 72 423 215 605 361 113 91 362 341 481 484
71 85 272 343 325 418 1 2 35 -24 76 -58 319 -269 726 -420 1132 -420 261 0
600 76 840 188 137 64 196 154 183 278 -12 114 -97 232 -205 282 -48 23 -70
27 -142 26 -77 0 -95 -4 -188 -43 -156 -65 -275 -92 -425 -98 -259 -11 -471
55 -702 218 -98 70 -272 238 -350 337 -27 35 -70 76 -95 90 -39 24 -56 27
-130 27 -76 0 -93 -4 -150 -32 -87 -43 -124 -84 -281 -308 -322 -462 -510
-685 -731 -871 -91 -76 -200 -154 -216 -154 -18 0 -115 243 -161 404 -74 257
-91 385 -99 721 l-7 280 -30 53 c-29 53 -75 92 -140 121 -52 23 -182 24 -242
3z"/>
<path d="M61345 41143 c-356 -11 -1626 -79 -2115 -112 -105 -8 -1342 -167
-2220 -286 -165 -22 -342 -56 -700 -135 -173 -38 -632 -137 -1019 -220 -699
-150 -1054 -234 -1562 -370 -2819 -758 -5688 -1871 -8744 -3390 -5240 -2606
-10569 -6231 -16340 -11114 -2547 -2155 -4922 -4351 -7550 -6981 -2949 -2951
-5752 -6033 -7964 -8760 -134 -165 -251 -308 -259 -317 -8 -10 -11 -18 -5 -18
5 0 45 44 88 98 1839 2273 3827 4514 6269 7067 617 645 772 802 1730 1763
2693 2701 4750 4602 7421 6862 1663 1406 3367 2762 4742 3773 1488 1094 2011
1464 3243 2298 6264 4239 12424 7131 18043 8468 331 79 2445 503 2642 531 83
11 596 83 1140 160 949 134 1005 141 1365 165 206 14 629 43 940 65 1119 78
1278 84 2035 70 314 -5 716 -10 895 -10 341 0 547 -13 803 -50 663 -97 1285
-277 1630 -471 276 -155 433 -304 523 -494 53 -112 74 -207 74 -328 0 -179
-42 -335 -150 -554 -364 -735 -1306 -1627 -2901 -2745 -1011 -709 -2386 -1553
-3970 -2436 -2391 -1333 -5086 -2681 -8107 -4055 -183 -83 -329 -153 -324
-155 14 -4 1042 447 1947 856 4003 1807 7620 3696 9995 5220 952 611 1852
1274 2448 1805 187 166 525 505 662 662 230 265 395 505 521 760 112 225 156
389 166 610 9 223 -32 395 -137 579 -203 354 -659 644 -1337 850 -437 133
-996 243 -1398 276 -71 6 -427 19 -790 30 -363 12 -752 25 -865 30 -184 8
-656 10 -865 3z"/>
<path d="M59905 39472 c-66 -13 -289 -59 -495 -103 -3407 -728 -6949 -1876
-10510 -3407 -4099 -1763 -8238 -4039 -12155 -6685 -2151 -1453 -4252 -3026
-6080 -4551 -690 -576 -1485 -1272 -1485 -1300 0 -7 13 -25 28 -40 l29 -27
134 122 c735 669 2015 1733 3124 2595 3545 2757 7342 5223 11220 7286 1027
547 2237 1152 3270 1636 4343 2034 8716 3520 12823 4359 230 47 232 47 231 73
-1 14 -4 34 -7 46 l-7 20 -120 -24z"/>
</g>
</svg>
