<svg id="svg" xmlns="http://www.w3.org/2000/svg" xmlns:xlink="http://www.w3.org/1999/xlink" width="400" height="400" viewBox="0, 0, 400,400"><g id="svgg"><path id="path0" d="M0.000 200.000 L 0.000 400.000 200.000 400.000 L 400.000 400.000 400.000 200.000 L 400.000 0.000 200.000 0.000 L 0.000 0.000 0.000 200.000 M267.417 57.280 C 270.914 58.139,273.341 60.750,274.283 64.667 C 274.660 66.236,274.706 71.597,274.357 73.417 C 273.231 79.296,271.608 83.578,268.165 89.743 C 260.692 103.126,251.102 116.248,242.509 124.844 C 237.515 129.841,233.141 133.474,227.335 137.448 C 223.952 139.764,222.747 141.901,221.926 147.040 C 220.429 156.411,224.340 163.948,229.917 162.437 C 237.256 160.448,251.351 147.951,256.400 138.955 C 259.381 133.644,264.856 128.456,268.318 127.661 C 270.630 127.130,275.612 128.202,277.050 129.539 C 278.242 130.647,278.638 133.377,277.738 134.277 C 276.593 135.423,274.576 134.480,273.400 132.248 C 272.064 129.712,271.260 129.808,268.057 132.887 C 262.015 138.695,258.881 144.991,257.921 153.250 C 257.303 158.568,258.249 161.504,261.000 162.811 C 263.504 164.002,265.670 162.742,270.457 157.309 C 275.410 151.689,275.680 150.511,272.417 148.748 C 268.575 146.673,267.498 144.317,269.003 141.278 C 270.418 138.419,273.050 137.399,276.781 138.263 C 280.631 139.154,281.995 141.320,281.999 146.545 L 282.000 148.506 282.458 148.405 C 286.276 147.559,289.146 145.821,294.083 141.363 C 295.463 140.118,296.172 139.648,297.359 139.192 C 297.655 139.078,297.839 138.853,297.913 138.515 C 298.123 137.560,299.302 136.870,300.417 137.051 C 302.517 137.392,303.027 138.535,302.422 141.537 C 301.487 146.173,300.764 149.873,300.654 150.583 C 300.486 151.667,300.463 156.003,300.625 155.990 C 300.694 155.985,301.584 154.654,302.603 153.032 C 306.222 147.272,309.294 142.428,310.816 140.083 C 315.310 133.161,325.202 121.627,329.445 118.362 C 332.564 115.961,337.167 116.506,339.076 119.500 C 340.307 121.430,340.287 122.238,338.595 139.333 C 338.303 142.288,337.601 148.606,337.087 152.917 C 336.076 161.383,335.950 164.372,336.487 167.142 C 337.226 170.955,339.335 174.320,342.250 176.339 L 343.083 176.917 341.500 176.966 C 337.045 177.103,333.588 174.936,331.992 171.006 C 331.031 168.638,330.917 167.706,330.918 162.250 C 330.920 156.536,331.066 154.967,332.498 145.333 C 332.681 144.096,332.822 142.896,332.810 142.667 L 332.788 142.250 332.720 142.667 C 332.462 144.253,331.493 149.273,330.972 151.720 C 330.878 152.162,330.767 152.490,330.726 152.449 C 330.685 152.408,330.802 151.634,330.986 150.729 C 332.199 144.746,333.163 138.609,334.091 130.955 C 334.386 128.523,334.365 121.918,334.060 120.954 L 333.913 120.492 332.331 121.859 C 324.723 128.436,318.217 136.811,309.175 151.667 C 307.920 153.729,306.223 156.492,305.405 157.807 C 302.241 162.889,299.943 163.985,296.306 162.149 C 294.722 161.350,294.114 158.997,294.649 155.737 C 294.753 155.103,295.068 153.158,295.348 151.417 C 295.629 149.675,296.004 147.507,296.182 146.600 C 296.581 144.564,296.713 144.584,294.820 146.392 C 292.308 148.792,291.355 149.311,288.833 149.651 C 283.453 150.376,279.437 153.202,274.500 159.735 C 266.118 170.828,251.686 167.450,252.025 154.474 L 252.083 152.228 249.744 154.572 C 244.908 159.420,240.203 162.586,234.917 164.551 C 225.757 167.956,217.970 162.367,217.357 151.952 L 217.250 150.127 216.144 151.439 C 205.994 163.471,195.503 163.433,187.476 151.333 C 186.838 150.371,186.253 149.583,186.177 149.583 C 186.054 149.583,185.159 150.395,180.668 154.583 C 179.979 155.225,178.712 156.387,177.851 157.167 C 176.989 157.946,176.202 158.658,176.101 158.750 C 175.999 158.842,175.317 159.442,174.583 160.083 C 173.850 160.725,173.213 161.289,173.167 161.338 C 170.920 163.700,165.564 165.313,163.167 164.349 C 161.121 163.526,159.758 162.703,158.685 161.642 C 156.386 159.370,155.855 155.294,157.271 150.782 C 159.853 142.559,162.516 137.798,167.078 133.250 C 170.844 129.495,173.763 127.753,177.138 127.246 C 181.581 126.579,186.862 128.710,188.752 131.935 C 190.047 134.145,191.081 141.264,190.502 143.992 C 189.427 149.056,192.680 155.140,197.384 156.864 C 202.338 158.679,206.105 156.269,215.965 144.972 L 217.662 143.028 218.179 140.472 C 222.509 119.091,227.134 104.678,234.083 90.917 C 242.702 73.848,254.671 58.784,260.782 57.313 C 262.732 56.844,265.582 56.830,267.417 57.280 M264.122 59.680 C 261.252 60.364,254.046 67.803,249.386 74.892 C 243.812 83.373,239.494 91.001,236.638 97.417 C 236.394 97.967,236.026 98.792,235.822 99.250 C 234.029 103.280,231.411 110.609,229.840 116.000 C 229.639 116.688,229.409 117.438,229.329 117.667 C 229.062 118.424,227.217 125.376,226.675 127.667 C 226.382 128.904,226.035 130.367,225.904 130.917 C 225.359 133.206,225.339 133.500,225.730 133.499 C 226.951 133.496,227.863 132.850,231.917 129.122 C 240.736 121.011,249.258 111.055,255.794 101.228 C 263.735 89.287,268.186 79.945,269.601 72.250 C 270.042 69.855,270.052 64.080,269.617 63.019 C 268.635 60.620,266.252 59.172,264.122 59.680 M49.462 77.209 C 49.820 77.591,50.584 79.157,52.336 83.107 C 53.940 86.722,55.044 89.000,55.193 89.000 C 55.351 89.000,56.377 88.111,57.501 87.000 C 59.581 84.944,61.669 82.020,62.926 79.405 C 64.329 76.484,66.195 76.781,66.654 80.000 C 66.753 80.688,66.984 82.300,67.169 83.583 C 67.354 84.867,67.615 86.742,67.749 87.750 C 68.530 93.603,68.715 94.962,69.011 97.000 C 69.484 100.265,69.855 102.393,70.580 105.997 C 71.000 108.080,70.045 109.286,68.456 108.682 C 67.527 108.329,66.532 103.532,65.098 92.500 C 64.143 85.149,64.004 84.257,63.842 84.443 C 63.775 84.520,63.279 85.183,62.740 85.917 C 60.479 88.995,55.783 93.167,54.579 93.167 C 53.596 93.167,52.047 90.723,50.143 86.167 C 49.169 83.835,49.249 83.689,49.024 88.197 C 48.573 97.240,48.494 100.742,48.660 104.309 C 48.839 108.126,48.802 108.393,48.062 108.675 C 46.504 109.267,45.686 108.501,45.465 106.241 C 45.281 104.367,45.423 92.699,45.661 90.083 C 45.744 89.167,45.859 86.317,45.917 83.750 C 46.041 78.175,45.993 78.457,46.968 77.558 C 47.911 76.689,48.849 76.557,49.462 77.209 M172.333 80.790 C 177.527 82.369,180.711 87.244,179.825 92.261 C 178.333 100.717,167.534 114.692,152.583 127.515 C 143.438 135.359,141.979 136.152,139.205 134.788 C 138.318 134.351,138.214 134.518,140.583 132.582 C 154.083 121.554,166.448 108.421,170.477 100.833 C 176.548 89.401,175.273 83.304,166.815 83.318 C 161.740 83.326,152.765 85.552,146.583 88.335 C 140.165 91.225,135.855 93.712,128.084 99.011 C 127.153 99.646,120.150 104.897,119.500 105.448 C 119.271 105.642,118.033 106.677,116.750 107.748 C 105.186 117.398,97.398 128.141,94.883 137.917 C 94.447 139.614,94.455 144.494,94.897 145.917 C 95.584 148.129,97.664 151.435,98.752 152.044 C 99.319 152.362,104.961 153.413,109.667 154.077 C 126.405 156.440,138.736 159.157,144.083 161.659 C 144.267 161.745,144.792 161.977,145.250 162.176 C 150.980 164.654,158.476 169.682,160.670 172.518 C 163.516 176.197,165.186 176.362,168.861 173.327 C 171.372 171.254,173.869 169.423,177.083 167.301 C 182.484 163.734,183.435 163.462,185.875 164.789 C 186.876 165.334,186.889 165.294,185.457 166.074 C 183.649 167.059,180.151 169.452,178.083 171.120 C 176.448 172.439,174.328 174.057,170.300 177.060 C 167.468 179.171,167.256 180.337,168.884 184.842 C 170.267 188.670,170.824 191.687,171.158 197.167 C 171.858 208.631,170.550 214.245,166.030 219.177 C 165.484 219.773,164.615 220.957,164.098 221.808 C 156.690 234.026,146.193 241.894,134.268 244.168 C 132.959 244.418,132.513 244.578,132.102 244.949 L 131.585 245.417 131.998 244.947 L 132.412 244.478 131.498 244.614 C 126.437 245.367,120.460 244.224,118.057 242.045 C 113.729 238.122,114.857 228.744,120.690 220.156 C 129.393 207.340,143.097 193.102,156.031 183.436 L 156.645 182.977 156.151 182.197 C 150.821 173.766,139.611 167.446,123.583 163.833 C 122.758 163.647,121.783 163.425,121.417 163.339 C 120.481 163.120,118.577 162.744,116.333 162.334 C 115.279 162.141,114.042 161.913,113.583 161.827 C 113.125 161.741,112.075 161.553,111.250 161.409 C 110.425 161.265,109.188 161.046,108.500 160.923 C 107.813 160.800,106.500 160.570,105.583 160.412 C 81.252 156.205,75.993 151.332,81.956 138.518 C 88.672 124.086,116.846 98.478,135.833 89.549 C 136.246 89.355,137.296 88.860,138.167 88.450 C 141.500 86.880,145.934 85.164,149.417 84.097 C 150.517 83.760,151.754 83.381,152.167 83.255 C 154.420 82.566,160.316 81.270,163.500 80.764 C 164.371 80.626,165.271 80.478,165.500 80.436 C 166.638 80.228,171.275 80.468,172.333 80.790 M80.532 94.803 C 83.781 95.875,86.837 100.399,85.741 102.517 C 84.541 104.837,79.554 107.628,76.883 107.473 C 71.021 107.133,69.907 97.495,75.561 96.031 C 75.848 95.957,76.165 95.732,76.265 95.532 C 76.825 94.411,78.484 94.127,80.532 94.803 M89.792 95.942 C 90.116 96.297,90.167 96.537,90.170 97.718 C 90.176 99.808,91.056 103.333,91.573 103.333 C 91.981 103.333,93.862 101.433,95.091 99.779 C 97.095 97.083,97.153 97.016,97.691 96.737 C 98.437 96.352,98.884 96.543,100.010 97.734 C 102.010 99.849,104.313 100.472,106.705 99.544 C 109.216 98.571,110.865 101.227,108.431 102.323 C 105.339 103.717,101.578 103.324,99.102 101.350 C 98.312 100.720,98.498 100.668,97.683 101.748 C 94.815 105.547,91.164 107.930,89.740 106.933 C 88.406 105.998,86.495 99.225,86.922 96.946 C 87.195 95.493,88.850 94.914,89.792 95.942 M81.000 98.961 C 81.000 99.517,79.840 99.697,78.642 99.326 C 76.317 98.606,75.166 99.393,75.167 101.700 C 75.169 104.974,78.930 104.980,82.044 101.711 L 82.504 101.228 81.997 100.214 C 81.513 99.244,81.000 98.600,81.000 98.961 M103.555 120.458 C 89.236 137.533,86.893 148.332,96.802 151.577 C 97.955 151.955,97.959 151.934,96.971 150.664 C 91.632 143.802,93.635 133.928,102.862 121.625 C 104.411 119.561,104.660 119.140,103.555 120.458 M91.470 128.375 C 82.444 140.144,80.184 147.386,84.382 151.085 C 86.620 153.056,92.721 155.331,100.083 156.938 C 102.268 157.415,105.910 158.172,109.250 158.843 C 111.083 159.211,113.091 159.633,113.713 159.780 C 115.384 160.176,115.242 159.946,113.544 159.508 C 111.423 158.960,107.483 157.630,105.730 156.870 C 104.895 156.508,103.846 156.159,103.398 156.096 C 90.343 154.242,83.662 149.406,84.644 142.521 C 85.191 138.692,87.938 133.261,92.097 127.792 C 92.428 127.356,92.659 127.000,92.612 127.000 C 92.564 127.000,92.050 127.619,91.470 128.375 M179.250 130.482 C 171.089 132.862,160.143 150.027,161.649 158.083 C 162.330 161.726,163.887 162.167,167.395 159.714 C 176.095 153.630,184.326 143.570,185.016 138.179 C 185.811 131.962,183.725 129.177,179.250 130.482 M330.500 153.750 C 330.392 154.269,330.273 154.662,330.235 154.624 C 330.198 154.587,330.252 154.129,330.357 153.607 C 330.462 153.086,330.581 152.692,330.622 152.733 C 330.662 152.774,330.608 153.231,330.500 153.750 M106.750 156.907 C 109.952 158.380,115.068 159.695,126.583 162.006 C 136.184 163.932,140.667 165.004,144.657 166.330 C 145.490 166.607,146.227 166.832,146.294 166.831 C 146.471 166.829,142.446 164.815,141.167 164.266 C 137.227 162.576,131.786 160.868,127.083 159.844 C 126.167 159.644,125.117 159.413,124.750 159.330 C 123.214 158.982,118.890 158.271,117.167 158.084 C 116.662 158.029,115.725 157.912,115.083 157.825 C 114.442 157.738,112.754 157.513,111.333 157.327 C 109.912 157.140,108.375 156.921,107.917 156.840 C 105.893 156.482,105.834 156.486,106.750 156.907 M115.500 160.144 C 116.122 160.349,117.321 160.525,116.917 160.352 C 116.733 160.273,116.246 160.164,115.833 160.108 C 115.340 160.042,115.226 160.054,115.500 160.144 M117.750 160.648 C 117.933 160.727,118.421 160.836,118.833 160.892 C 119.327 160.958,119.441 160.946,119.167 160.856 C 118.544 160.651,117.346 160.475,117.750 160.648 M119.681 161.066 C 119.719 161.103,120.575 161.332,121.583 161.576 C 138.598 165.695,149.935 172.189,156.029 181.305 C 156.499 182.008,156.911 182.616,156.945 182.656 C 157.346 183.129,159.417 179.914,159.275 179.040 C 158.819 176.230,151.071 168.997,146.781 167.377 C 144.058 166.349,138.489 164.780,135.000 164.058 C 134.313 163.916,133.262 163.694,132.667 163.565 C 132.071 163.436,131.021 163.219,130.333 163.082 C 129.646 162.945,128.858 162.788,128.583 162.732 C 122.249 161.447,119.551 160.943,119.681 161.066 M159.750 185.149 C 158.577 185.726,158.599 185.645,159.218 187.097 C 160.786 190.775,161.869 195.011,162.069 198.250 L 162.152 199.583 161.929 197.917 C 161.383 193.834,160.366 190.203,158.878 187.031 L 158.385 185.980 157.717 186.615 C 157.351 186.964,156.653 187.723,156.167 188.302 C 155.681 188.880,154.038 190.453,152.517 191.797 C 137.020 205.485,128.278 215.888,122.585 227.417 C 119.581 233.500,119.760 237.547,123.175 240.741 C 124.777 242.240,127.732 242.894,129.833 242.215 C 130.154 242.111,131.729 241.607,133.333 241.095 C 136.663 240.033,136.700 240.013,138.833 238.161 C 141.674 235.695,146.336 232.376,150.855 229.604 C 154.918 227.111,161.086 217.329,163.691 209.250 C 165.076 204.953,165.405 202.786,165.401 198.000 C 165.392 187.572,163.514 183.301,159.750 185.149 M315.583 194.428 C 329.446 194.800,336.203 199.387,332.875 206.167 C 329.991 212.043,320.027 219.769,303.000 229.333 C 299.412 231.348,297.727 232.261,293.083 234.704 C 290.399 236.116,279.040 241.791,276.667 242.905 C 275.704 243.357,274.092 244.116,273.083 244.592 C 272.075 245.068,270.819 245.654,270.292 245.895 C 268.299 246.806,267.371 247.235,265.860 247.940 C 265.003 248.340,264.276 248.667,264.244 248.667 C 264.213 248.667,263.526 248.973,262.718 249.348 C 261.911 249.723,260.800 250.220,260.250 250.451 C 259.700 250.682,258.950 251.007,258.583 251.173 C 256.516 252.108,255.953 252.342,255.897 252.286 C 255.864 252.253,256.229 252.048,256.710 251.832 C 258.964 250.820,262.596 249.134,266.500 247.290 C 267.371 246.878,268.833 246.187,269.750 245.754 C 276.663 242.490,289.019 236.117,296.583 231.915 C 336.901 209.516,343.175 196.793,314.182 196.227 C 307.542 196.097,298.562 196.643,292.083 197.572 C 291.167 197.703,289.592 197.928,288.583 198.071 C 287.575 198.214,286.188 198.412,285.500 198.510 C 281.257 199.116,269.954 201.589,265.015 202.992 C 256.135 205.516,244.412 209.632,238.417 212.332 C 238.233 212.414,237.708 212.640,237.250 212.833 C 236.792 213.027,236.267 213.252,236.083 213.333 C 235.900 213.415,235.412 213.627,235.000 213.805 C 233.865 214.295,229.299 216.367,227.417 217.247 C 223.601 219.030,216.014 222.891,212.458 224.859 C 211.656 225.303,210.963 225.667,210.919 225.667 C 210.875 225.667,210.481 225.880,210.044 226.141 C 209.607 226.402,208.200 227.203,206.917 227.923 C 202.812 230.223,194.182 235.431,190.083 238.081 C 188.235 239.275,178.834 245.533,177.667 246.346 C 176.979 246.824,175.929 247.554,175.333 247.967 C 173.650 249.135,170.966 251.071,168.506 252.891 C 167.272 253.804,165.868 254.825,165.386 255.160 C 163.809 256.254,157.436 261.189,152.250 265.334 C 149.168 267.796,140.565 274.919,140.167 275.338 C 140.092 275.417,138.049 277.173,136.998 278.062 C 135.106 279.664,129.378 284.716,127.417 286.514 C 126.958 286.934,125.608 288.169,124.417 289.259 C 123.225 290.349,121.050 292.368,119.584 293.745 C 118.118 295.123,117.027 296.111,117.161 295.940 C 117.484 295.529,124.360 289.059,127.917 285.821 C 138.441 276.238,149.017 267.334,161.790 257.302 C 166.902 253.286,176.078 246.563,183.250 241.578 C 187.479 238.638,194.203 234.253,199.333 231.090 C 213.254 222.505,226.214 215.749,240.158 209.806 C 244.006 208.166,244.696 207.889,249.500 206.055 C 257.294 203.080,268.924 199.542,274.836 198.346 C 275.339 198.245,276.237 198.057,276.833 197.928 C 277.429 197.800,278.479 197.577,279.167 197.432 C 279.854 197.288,281.092 197.017,281.917 196.831 C 282.742 196.644,284.504 196.343,285.833 196.162 C 287.162 195.981,288.775 195.758,289.417 195.666 C 296.202 194.694,304.793 194.108,309.917 194.267 C 311.017 194.301,313.567 194.373,315.583 194.428 M170.777 202.497 C 170.052 208.206,168.584 213.045,165.904 218.560 L 165.488 219.417 166.181 218.667 C 169.697 214.862,171.386 209.035,171.134 201.583 L 171.083 200.083 170.777 202.497 M300.167 202.739 C 300.167 203.011,300.071 203.045,298.250 203.413 C 297.517 203.562,296.617 203.753,296.250 203.837 C 295.130 204.097,293.492 204.472,291.917 204.830 C 290.363 205.183,288.842 205.558,287.833 205.835 C 287.512 205.923,285.825 206.377,284.083 206.844 C 282.342 207.312,280.017 207.958,278.917 208.281 C 277.817 208.603,276.579 208.965,276.167 209.084 C 273.892 209.741,266.048 212.331,263.333 213.321 C 262.371 213.672,260.908 214.203,260.083 214.502 C 258.656 215.018,256.235 215.952,252.000 217.620 C 250.015 218.402,241.675 221.946,239.917 222.754 C 236.407 224.367,234.588 225.205,233.417 225.749 C 222.643 230.745,206.844 239.425,195.500 246.579 C 194.079 247.475,192.556 248.433,192.115 248.708 C 181.475 255.342,162.068 269.481,153.833 276.600 C 153.263 277.094,147.632 281.948,146.814 282.652 C 145.745 283.572,145.647 283.056,146.704 282.070 C 150.816 278.239,161.807 269.322,168.500 264.389 C 169.371 263.747,170.946 262.587,172.000 261.810 C 177.262 257.933,188.937 250.014,194.282 246.695 C 195.365 246.023,197.211 244.878,198.386 244.149 C 200.707 242.710,206.063 239.558,209.250 237.755 C 210.350 237.133,211.813 236.304,212.500 235.914 C 218.648 232.426,229.760 226.795,237.083 223.459 C 238.275 222.916,239.662 222.283,240.167 222.052 C 249.909 217.597,265.013 211.910,275.667 208.684 C 281.375 206.956,287.563 205.286,292.417 204.166 C 300.248 202.358,300.167 202.373,300.167 202.739 M148.667 231.210 C 143.985 234.196,137.667 238.926,137.667 239.445 C 137.667 239.897,144.109 235.880,146.583 233.885 C 148.163 232.612,151.345 229.689,151.167 229.675 C 151.121 229.672,149.996 230.362,148.667 231.210 M130.563 246.833 C 129.949 247.567,129.410 248.167,129.364 248.167 C 129.276 248.167,129.304 248.131,130.651 246.542 C 131.136 245.969,131.566 245.500,131.606 245.500 C 131.646 245.500,131.177 246.100,130.563 246.833 M109.167 303.710 C 109.167 303.734,107.835 305.065,106.208 306.668 L 103.250 309.583 106.165 306.625 C 108.873 303.876,109.167 303.591,109.167 303.710 " stroke="none" fill="#fbfbfb" fill-rule="evenodd"></path><path id="path1" d="M262.079 57.153 C 258.950 57.657,256.489 59.367,252.231 64.000 C 236.710 80.884,225.729 104.867,219.150 136.250 C 219.073 136.617,218.719 138.313,218.363 140.019 L 217.716 143.121 215.316 145.852 C 205.028 157.559,200.816 159.616,195.021 155.764 C 191.783 153.611,189.540 147.834,190.415 143.901 C 190.588 143.123,190.668 142.269,190.617 141.761 C 189.918 134.920,189.825 134.422,188.886 132.500 C 187.452 129.564,183.653 127.464,179.333 127.218 C 170.596 126.722,160.734 137.736,156.993 152.167 C 154.485 161.840,163.795 168.119,171.888 162.214 C 173.422 161.095,185.534 150.119,185.914 149.504 C 186.111 149.186,186.285 149.331,186.901 150.329 C 194.745 163.039,205.547 163.648,215.583 151.947 L 217.250 150.004 217.453 152.127 C 219.043 168.775,234.315 169.894,249.700 154.491 L 252.150 152.038 252.129 154.644 C 252.021 167.603,266.155 170.661,274.571 159.499 C 279.419 153.071,283.036 150.559,288.936 149.524 C 291.498 149.074,292.317 148.633,294.632 146.454 C 295.684 145.464,296.563 144.676,296.586 144.702 C 296.609 144.729,296.417 145.875,296.160 147.250 C 295.728 149.554,295.042 153.757,294.635 156.583 C 294.068 160.519,295.807 162.833,299.330 162.833 C 302.018 162.833,302.619 162.162,308.501 152.583 C 318.798 135.819,323.859 129.290,332.562 121.544 C 333.307 120.881,333.964 120.337,334.021 120.336 C 334.672 120.320,334.565 128.118,333.838 133.730 C 333.554 135.920,333.362 137.751,333.411 137.800 C 333.460 137.849,333.500 137.714,333.500 137.500 C 333.500 137.286,333.536 137.148,333.581 137.192 C 333.675 137.286,333.051 142.212,332.319 147.167 C 329.077 169.093,331.238 176.349,341.180 176.929 L 342.917 177.031 342.333 176.564 C 337.396 172.612,335.662 168.283,336.156 161.138 C 336.325 158.691,336.447 157.509,337.000 152.917 C 337.574 148.158,338.648 138.057,339.073 133.417 C 340.139 121.769,340.139 121.755,339.247 119.993 C 337.809 117.157,333.938 116.110,330.730 117.689 C 327.428 119.314,316.882 131.159,311.385 139.417 C 309.992 141.510,309.892 141.666,304.155 150.717 L 300.583 156.351 300.444 155.467 C 300.185 153.819,300.450 150.989,301.228 147.103 C 302.424 141.123,302.551 140.450,302.625 139.738 C 302.904 137.049,299.074 136.079,298.007 138.568 C 297.755 139.155,297.609 139.280,296.973 139.450 C 296.423 139.597,295.745 140.070,294.347 141.282 C 288.773 146.115,286.790 147.360,283.167 148.301 L 281.917 148.626 281.821 145.771 C 281.664 141.088,280.673 139.505,277.251 138.470 C 272.508 137.035,268.583 139.388,268.583 143.667 C 268.583 145.888,269.585 147.199,272.342 148.588 C 275.793 150.325,275.553 151.680,270.853 156.998 C 265.624 162.915,263.579 164.121,260.917 162.859 C 258.494 161.711,257.537 159.355,257.723 155.000 C 258.081 146.621,261.282 139.516,267.490 133.326 C 271.069 129.757,272.218 129.512,273.389 132.069 C 274.279 134.013,275.802 134.978,277.234 134.505 C 278.794 133.991,278.318 130.432,276.532 129.253 C 274.580 127.964,269.916 127.264,267.690 127.925 C 264.401 128.902,259.131 134.193,256.243 139.417 C 254.660 142.282,247.866 150.163,243.865 153.777 C 238.528 158.597,231.427 162.700,228.392 162.716 C 223.120 162.744,220.120 154.361,222.170 145.329 C 223.168 140.931,224.046 139.635,227.785 137.039 C 241.052 127.827,252.128 115.593,263.281 97.833 C 269.871 87.339,272.755 81.062,274.115 74.250 C 274.594 71.851,274.550 65.876,274.040 64.117 C 272.521 58.875,267.942 56.209,262.079 57.153 M266.923 59.977 C 275.395 63.985,267.301 87.346,249.577 110.043 C 242.914 118.574,230.236 131.700,227.167 133.244 C 225.224 134.221,225.124 133.955,226.005 130.150 C 231.253 107.477,237.391 92.812,248.875 75.511 C 252.688 69.767,257.603 64.108,261.500 60.977 C 263.439 59.420,265.099 59.113,266.923 59.977 M47.750 77.028 C 47.567 77.130,47.148 77.487,46.819 77.821 L 46.222 78.430 46.112 82.340 C 46.051 84.490,45.928 87.375,45.839 88.750 C 45.250 97.798,45.293 107.109,45.929 108.079 C 46.656 109.188,48.659 108.877,48.669 107.654 C 48.671 107.432,48.628 104.925,48.574 102.083 C 48.486 97.480,48.949 84.329,49.209 84.069 C 49.241 84.036,49.558 84.664,49.912 85.463 C 52.833 92.057,53.948 93.643,55.200 92.986 C 56.876 92.108,60.787 88.371,62.698 85.823 C 64.121 83.925,64.095 83.938,64.217 85.036 C 64.579 88.285,65.838 97.336,66.426 100.917 C 67.558 107.817,67.849 108.667,69.086 108.667 C 70.597 108.667,70.905 107.826,70.341 105.242 C 69.728 102.431,68.834 96.797,68.095 91.083 C 66.368 77.750,66.348 77.667,64.843 77.667 C 63.992 77.667,63.804 77.860,62.868 79.702 C 61.238 82.910,56.184 89.167,55.223 89.167 C 55.044 89.167,53.794 86.623,52.028 82.667 C 49.336 76.634,49.077 76.293,47.750 77.028 M165.750 80.510 C 141.785 83.752,120.550 95.539,98.082 118.071 C 81.541 134.659,76.172 146.466,82.389 152.583 C 85.817 155.955,91.968 157.896,108.563 160.841 C 136.737 165.841,147.658 170.535,155.392 180.970 C 156.963 183.091,157.023 182.788,154.677 184.620 C 136.935 198.474,119.794 218.238,116.694 228.417 C 113.134 240.107,118.008 245.847,130.429 244.591 C 140.399 243.582,148.304 239.708,155.929 232.092 C 169.341 218.697,174.261 200.291,168.656 184.483 C 167.532 181.315,167.464 180.131,168.332 178.859 C 168.945 177.962,169.129 177.806,172.833 175.065 C 174.162 174.081,176.300 172.438,177.583 171.413 C 180.180 169.340,182.878 167.451,184.965 166.246 C 186.696 165.246,186.672 165.308,185.536 164.733 C 184.279 164.096,183.005 164.078,181.583 164.677 C 179.667 165.484,172.425 170.435,169.589 172.877 C 165.425 176.461,163.649 176.446,160.788 172.799 C 159.386 171.013,159.247 170.890,156.050 168.607 C 148.112 162.939,142.200 160.412,130.833 157.830 C 125.773 156.681,118.121 155.344,111.250 154.407 C 100.295 152.914,98.633 152.429,97.008 150.250 C 91.338 142.643,94.655 131.555,106.949 117.022 C 112.577 110.369,126.008 99.641,136.500 93.418 C 151.168 84.717,168.006 80.758,172.636 84.921 C 176.595 88.481,173.188 99.090,164.848 109.167 C 159.560 115.556,148.861 125.949,140.833 132.496 C 138.333 134.535,138.423 134.345,139.683 134.911 C 141.642 135.790,142.798 135.362,146.500 132.393 C 162.664 119.425,171.809 109.277,177.868 97.583 C 183.043 87.598,176.938 78.997,165.750 80.510 M77.044 94.691 C 76.838 94.797,76.580 95.134,76.468 95.441 C 76.357 95.749,76.150 96.001,76.008 96.002 C 72.988 96.021,70.900 101.400,72.656 104.639 C 74.740 108.483,79.033 108.338,83.940 104.259 C 85.730 102.770,85.974 102.336,85.712 101.102 C 85.058 98.023,83.423 95.952,80.898 95.007 C 79.818 94.603,77.574 94.420,77.044 94.691 M87.837 95.714 C 85.978 96.654,87.817 105.870,90.079 106.948 C 91.458 107.606,94.845 105.281,97.435 101.900 L 98.375 100.672 98.979 101.136 C 101.584 103.135,104.684 103.604,107.819 102.472 C 109.348 101.920,109.810 101.160,109.222 100.165 C 108.700 99.281,107.925 99.140,106.519 99.675 C 104.247 100.538,102.053 99.921,99.980 97.837 C 98.236 96.082,97.830 96.179,95.920 98.817 C 93.977 101.502,91.734 103.830,91.431 103.478 C 90.748 102.683,90.194 100.228,90.102 97.599 C 90.039 95.765,89.168 95.040,87.837 95.714 M81.710 99.458 C 81.942 99.802,82.233 100.373,82.356 100.727 L 82.581 101.371 81.749 102.095 C 78.250 105.138,74.988 104.934,75.004 101.673 C 75.014 99.447,76.477 98.501,78.726 99.268 C 79.590 99.562,80.504 99.480,80.837 99.079 C 81.135 98.720,81.243 98.766,81.710 99.458 M105.681 118.125 C 105.494 118.377,104.660 119.446,103.829 120.500 C 93.875 133.121,91.532 143.948,97.253 150.883 C 98.300 152.153,98.260 152.181,96.367 151.512 C 86.642 148.073,89.614 136.277,104.486 119.292 C 105.908 117.668,106.325 117.261,105.681 118.125 M94.630 124.542 C 91.083 129.230,88.270 133.395,87.061 135.750 C 81.301 146.964,85.860 152.938,102.387 155.831 C 103.787 156.076,104.851 156.386,106.064 156.905 C 108.902 158.117,117.030 160.529,118.147 160.491 C 118.295 160.486,116.992 160.119,115.250 159.676 C 111.812 158.802,108.965 157.922,107.000 157.126 C 105.663 156.584,105.089 156.213,105.873 156.398 C 106.643 156.579,110.550 157.148,114.667 157.677 C 121.548 158.562,123.738 158.944,128.426 160.079 C 134.899 161.646,139.645 163.311,144.283 165.640 C 146.405 166.706,147.274 167.237,146.667 167.095 L 146.250 166.998 146.667 167.187 C 149.218 168.343,151.248 169.755,154.307 172.501 C 159.587 177.240,160.425 179.430,157.915 181.940 L 156.984 182.871 156.220 181.727 C 149.274 171.326,137.071 164.864,115.833 160.337 C 114.962 160.152,113.950 159.926,113.583 159.835 C 113.217 159.745,110.667 159.217,107.917 158.663 C 93.660 155.789,88.271 154.112,84.696 151.439 C 80.440 148.255,81.760 141.851,88.713 131.936 C 90.232 129.771,94.761 124.000,94.942 124.000 C 94.996 124.000,94.855 124.244,94.630 124.542 M182.553 130.179 C 183.450 130.428,184.419 131.361,184.754 132.299 C 185.196 133.536,185.296 137.816,184.920 139.376 C 183.766 144.162,176.252 153.187,168.667 158.897 C 164.901 161.732,163.226 162.054,162.234 160.135 C 157.774 151.511,173.878 127.770,182.553 130.179 M333.205 138.500 C 333.205 138.821,333.240 138.952,333.282 138.792 C 333.323 138.631,333.323 138.369,333.282 138.208 C 333.240 138.048,333.205 138.179,333.205 138.500 M119.583 160.833 C 120.288 161.013,120.894 161.013,120.333 160.833 C 120.104 160.760,119.729 160.701,119.500 160.703 C 119.126 160.706,119.134 160.719,119.583 160.833 M121.167 161.167 C 121.396 161.240,121.771 161.299,122.000 161.297 C 122.374 161.294,122.366 161.281,121.917 161.167 C 121.212 160.987,120.606 160.987,121.167 161.167 M128.667 162.667 C 128.896 162.740,129.271 162.799,129.500 162.797 C 129.874 162.794,129.866 162.781,129.417 162.667 C 128.712 162.487,128.106 162.487,128.667 162.667 M143.417 166.167 C 143.600 166.245,143.862 166.310,144.000 166.310 C 144.158 166.310,144.127 166.257,143.917 166.167 C 143.733 166.088,143.471 166.023,143.333 166.023 C 143.176 166.023,143.207 166.076,143.417 166.167 M162.695 185.251 C 164.414 186.383,164.894 187.951,165.426 194.167 C 166.185 203.018,164.179 211.083,159.095 219.632 C 153.313 229.353,143.019 238.262,134.688 240.756 C 133.897 240.993,132.762 241.367,132.167 241.589 C 123.628 244.758,117.904 238.475,121.409 229.780 C 125.578 219.439,135.967 206.387,149.750 194.174 C 151.858 192.306,154.654 189.684,155.962 188.347 C 158.220 186.040,158.353 185.933,158.587 186.240 C 158.722 186.418,158.833 186.479,158.833 186.375 C 158.833 186.271,158.758 186.140,158.667 186.083 C 158.371 185.901,158.486 185.736,159.179 185.346 C 160.573 184.563,161.608 184.535,162.695 185.251 M302.667 194.515 C 297.777 194.783,294.859 195.021,292.500 195.342 C 291.171 195.522,289.183 195.785,288.083 195.926 C 285.572 196.247,283.188 196.633,282.000 196.911 C 281.496 197.029,280.483 197.252,279.750 197.407 C 278.184 197.737,276.540 198.088,274.917 198.439 C 242.229 205.499,201.757 226.459,163.333 256.227 C 156.658 261.398,145.468 270.461,145.219 270.898 C 145.161 271.000,145.294 270.928,145.515 270.738 C 152.609 264.634,167.607 253.179,176.917 246.756 C 210.403 223.650,240.674 208.985,270.333 201.498 C 272.276 201.008,283.766 198.651,285.250 198.438 C 304.179 195.727,318.545 195.370,325.811 197.430 C 336.011 200.322,334.087 206.853,319.917 217.441 C 314.359 221.594,304.644 227.629,295.417 232.662 C 294.867 232.962,294.192 233.338,293.917 233.498 C 293.642 233.657,292.742 234.146,291.917 234.584 C 291.092 235.022,289.892 235.664,289.250 236.012 C 285.260 238.174,272.858 244.405,268.207 246.584 C 267.266 247.025,266.524 247.413,266.557 247.446 C 266.690 247.578,277.508 242.459,285.000 238.720 C 328.026 217.243,342.852 202.815,328.167 196.712 C 323.398 194.730,313.800 193.903,302.667 194.515 M171.230 202.333 C 171.230 203.387,171.257 203.819,171.290 203.292 C 171.323 202.765,171.323 201.902,171.290 201.375 C 171.257 200.848,171.230 201.279,171.230 202.333 M297.500 203.098 C 293.399 204.022,292.432 204.248,289.583 204.948 C 267.387 210.404,241.404 220.490,220.000 231.957 C 199.943 242.703,184.237 252.684,167.083 265.586 C 158.576 271.984,145.714 282.603,146.056 282.945 C 146.195 283.084,146.505 282.844,148.692 280.908 C 157.973 272.690,171.540 262.347,184.333 253.737 C 221.489 228.729,260.300 211.475,297.208 203.553 C 298.835 203.204,300.167 202.862,300.167 202.792 C 300.167 202.587,299.356 202.680,297.500 203.098 M141.240 274.208 L 140.750 274.750 141.292 274.260 C 141.590 273.991,141.833 273.748,141.833 273.719 C 141.833 273.590,141.696 273.703,141.240 274.208 M140.073 275.208 L 139.583 275.750 140.125 275.260 C 140.630 274.804,140.743 274.667,140.615 274.667 C 140.586 274.667,140.342 274.910,140.073 275.208 " stroke="none" fill="#040404" fill-rule="evenodd"></path><path id="path2" d="M254.906 61.208 L 254.417 61.750 254.958 61.260 C 255.463 60.804,255.577 60.667,255.448 60.667 C 255.419 60.667,255.175 60.910,254.906 61.208 M252.573 63.542 L 252.083 64.083 252.625 63.594 C 253.130 63.138,253.243 63.000,253.115 63.000 C 253.086 63.000,252.842 63.244,252.573 63.542 M274.562 68.917 C 274.563 69.925,274.590 70.316,274.623 69.786 C 274.657 69.255,274.656 68.430,274.623 67.952 C 274.589 67.474,274.562 67.908,274.562 68.917 M46.045 83.000 C 46.045 83.412,46.078 83.581,46.118 83.375 C 46.157 83.169,46.157 82.831,46.118 82.625 C 46.078 82.419,46.045 82.587,46.045 83.000 M49.042 85.917 C 49.044 86.283,49.078 86.414,49.118 86.206 C 49.158 85.999,49.156 85.699,49.115 85.540 C 49.073 85.380,49.040 85.550,49.042 85.917 M45.875 86.750 C 45.877 87.117,45.911 87.247,45.951 87.040 C 45.991 86.832,45.990 86.532,45.948 86.373 C 45.906 86.214,45.874 86.383,45.875 86.750 M60.240 88.708 L 59.750 89.250 60.292 88.760 C 60.797 88.304,60.910 88.167,60.781 88.167 C 60.752 88.167,60.509 88.410,60.240 88.708 M48.872 89.000 C 48.872 89.321,48.906 89.452,48.948 89.292 C 48.990 89.131,48.990 88.869,48.948 88.708 C 48.906 88.548,48.872 88.679,48.872 89.000 M45.539 93.167 C 45.539 93.487,45.573 93.619,45.615 93.458 C 45.657 93.298,45.657 93.035,45.615 92.875 C 45.573 92.715,45.539 92.846,45.539 93.167 M48.545 96.000 C 48.545 96.412,48.578 96.581,48.618 96.375 C 48.657 96.169,48.657 95.831,48.618 95.625 C 48.578 95.419,48.545 95.587,48.545 96.000 M45.389 97.333 C 45.389 98.021,45.419 98.302,45.455 97.958 C 45.491 97.615,45.491 97.052,45.455 96.708 C 45.419 96.365,45.389 96.646,45.389 97.333 M71.885 101.583 C 71.886 102.133,71.917 102.338,71.954 102.039 C 71.991 101.739,71.990 101.289,71.952 101.039 C 71.914 100.788,71.884 101.033,71.885 101.583 M45.385 103.583 C 45.386 104.133,45.417 104.338,45.454 104.039 C 45.491 103.739,45.490 103.289,45.452 103.039 C 45.414 102.788,45.384 103.033,45.385 103.583 M95.409 104.208 L 94.750 104.917 95.458 104.258 C 96.117 103.645,96.243 103.500,96.117 103.500 C 96.090 103.500,95.771 103.819,95.409 104.208 M48.542 104.583 C 48.544 104.950,48.578 105.080,48.618 104.873 C 48.658 104.666,48.656 104.366,48.615 104.206 C 48.573 104.047,48.540 104.217,48.542 104.583 M109.740 113.875 L 109.250 114.417 109.792 113.927 C 110.297 113.471,110.410 113.333,110.281 113.333 C 110.252 113.333,110.009 113.577,109.740 113.875 M101.740 114.375 L 101.250 114.917 101.792 114.427 C 102.090 114.158,102.333 113.914,102.333 113.885 C 102.333 113.757,102.196 113.870,101.740 114.375 M155.831 118.792 L 153.917 120.750 155.875 118.836 C 156.952 117.783,157.833 116.902,157.833 116.878 C 157.833 116.758,157.608 116.973,155.831 118.792 M105.582 118.001 C 105.416 118.185,105.319 118.375,105.367 118.423 C 105.415 118.471,105.579 118.321,105.731 118.089 C 106.063 117.582,105.997 117.543,105.582 118.001 M327.906 119.708 L 327.417 120.250 327.958 119.760 C 328.463 119.304,328.577 119.167,328.448 119.167 C 328.419 119.167,328.175 119.410,327.906 119.708 M240.573 120.542 L 240.083 121.083 240.625 120.594 C 241.130 120.138,241.243 120.000,241.115 120.000 C 241.086 120.000,240.842 120.244,240.573 120.542 M94.740 121.375 L 94.250 121.917 94.792 121.427 C 95.090 121.158,95.333 120.914,95.333 120.885 C 95.333 120.757,95.196 120.870,94.740 121.375 M325.240 122.375 L 324.750 122.917 325.292 122.427 C 325.797 121.971,325.910 121.833,325.781 121.833 C 325.752 121.833,325.509 122.077,325.240 122.375 M334.372 123.833 C 334.372 124.154,334.406 124.285,334.448 124.125 C 334.490 123.965,334.490 123.702,334.448 123.542 C 334.406 123.381,334.372 123.513,334.372 123.833 M242.333 124.917 C 241.650 125.604,241.129 126.167,241.175 126.167 C 241.221 126.167,241.817 125.604,242.500 124.917 C 243.183 124.229,243.704 123.667,243.658 123.667 C 243.612 123.667,243.016 124.229,242.333 124.917 M328.161 125.625 L 327.250 126.583 328.208 125.672 C 329.099 124.826,329.243 124.667,329.119 124.667 C 329.093 124.667,328.662 125.098,328.161 125.625 M334.372 128.000 C 334.372 128.321,334.406 128.452,334.448 128.292 C 334.490 128.131,334.490 127.869,334.448 127.708 C 334.406 127.548,334.372 127.679,334.372 128.000 M232.406 128.708 L 231.917 129.250 232.458 128.760 C 232.963 128.304,233.077 128.167,232.948 128.167 C 232.919 128.167,232.675 128.410,232.406 128.708 M181.125 130.118 C 181.331 130.157,181.669 130.157,181.875 130.118 C 182.081 130.078,181.912 130.045,181.500 130.045 C 181.088 130.045,180.919 130.078,181.125 130.118 M333.500 137.472 C 333.500 137.671,333.440 137.833,333.367 137.833 C 333.294 137.833,333.264 138.096,333.302 138.417 C 333.343 138.774,333.298 139.000,333.185 139.000 C 333.083 139.000,333.000 139.073,333.000 139.161 C 333.000 139.250,333.102 139.284,333.228 139.236 C 333.443 139.153,333.747 137.358,333.575 137.186 C 333.534 137.145,333.500 137.274,333.500 137.472 M225.073 139.042 L 224.583 139.583 225.125 139.094 C 225.630 138.638,225.743 138.500,225.615 138.500 C 225.586 138.500,225.342 138.744,225.073 139.042 M332.833 140.245 C 332.833 140.393,332.931 140.452,333.082 140.394 C 333.219 140.341,333.290 140.231,333.239 140.149 C 333.094 139.914,332.833 139.975,332.833 140.245 M332.398 143.238 C 332.348 143.369,332.335 143.650,332.369 143.863 C 332.415 144.148,332.453 144.085,332.515 143.625 C 332.603 142.978,332.557 142.825,332.398 143.238 M295.406 145.708 L 294.917 146.250 295.458 145.760 C 295.963 145.304,296.077 145.167,295.948 145.167 C 295.919 145.167,295.675 145.410,295.406 145.708 M221.539 149.667 C 221.539 149.987,221.573 150.119,221.615 149.958 C 221.657 149.798,221.657 149.535,221.615 149.375 C 221.573 149.215,221.539 149.346,221.539 149.667 M245.831 151.792 L 243.917 153.750 245.875 151.836 C 246.952 150.783,247.833 149.902,247.833 149.878 C 247.833 149.758,247.608 149.973,245.831 151.792 M300.394 153.583 C 300.395 154.500,300.423 154.854,300.456 154.369 C 300.490 153.885,300.490 153.135,300.456 152.703 C 300.421 152.270,300.394 152.667,300.394 153.583 M267.412 160.542 L 266.250 161.750 267.458 160.588 C 268.581 159.508,268.743 159.333,268.621 159.333 C 268.595 159.333,268.051 159.877,267.412 160.542 M330.889 161.000 C 330.889 161.688,330.919 161.969,330.955 161.625 C 330.991 161.281,330.991 160.719,330.955 160.375 C 330.919 160.031,330.889 160.313,330.889 161.000 M221.000 161.719 C 221.000 161.748,221.244 161.991,221.542 162.260 L 222.083 162.750 221.594 162.208 C 221.138 161.703,221.000 161.590,221.000 161.719 M336.057 163.583 C 336.058 164.317,336.087 164.596,336.122 164.204 C 336.157 163.812,336.157 163.212,336.121 162.871 C 336.085 162.529,336.057 162.850,336.057 163.583 M330.883 165.000 C 330.883 165.504,330.915 165.710,330.953 165.458 C 330.991 165.206,330.991 164.794,330.953 164.542 C 330.915 164.290,330.883 164.496,330.883 165.000 M164.961 164.621 C 165.261 164.658,165.711 164.657,165.961 164.619 C 166.212 164.581,165.967 164.551,165.417 164.552 C 164.867 164.553,164.662 164.584,164.961 164.621 M155.750 174.000 C 156.479 174.733,157.113 175.333,157.159 175.333 C 157.205 175.333,156.646 174.733,155.917 174.000 C 155.188 173.267,154.554 172.667,154.508 172.667 C 154.462 172.667,155.021 173.267,155.750 174.000 M151.750 176.333 C 152.201 176.792,152.608 177.167,152.654 177.167 C 152.700 177.167,152.368 176.792,151.917 176.333 C 151.465 175.875,151.058 175.500,151.013 175.500 C 150.967 175.500,151.299 175.875,151.750 176.333 M154.991 189.458 L 154.417 190.083 155.042 189.509 C 155.623 188.974,155.743 188.833,155.616 188.833 C 155.588 188.833,155.307 189.115,154.991 189.458 M160.354 190.670 C 160.606 191.417,160.748 191.562,160.595 190.917 C 160.530 190.642,160.405 190.343,160.317 190.254 C 160.229 190.164,160.246 190.352,160.354 190.670 M303.958 194.451 C 304.165 194.491,304.502 194.491,304.708 194.451 C 304.915 194.411,304.746 194.379,304.333 194.379 C 303.921 194.379,303.752 194.411,303.958 194.451 M312.628 194.454 C 312.928 194.491,313.378 194.490,313.628 194.452 C 313.878 194.414,313.633 194.384,313.083 194.385 C 312.533 194.386,312.328 194.417,312.628 194.454 M317.792 194.618 C 317.998 194.657,318.335 194.657,318.542 194.618 C 318.748 194.578,318.579 194.545,318.167 194.545 C 317.754 194.545,317.585 194.578,317.792 194.618 M165.545 196.833 C 165.545 197.246,165.578 197.415,165.618 197.208 C 165.657 197.002,165.657 196.665,165.618 196.458 C 165.578 196.252,165.545 196.421,165.545 196.833 M171.050 197.833 C 171.050 198.338,171.081 198.544,171.119 198.292 C 171.158 198.040,171.158 197.627,171.119 197.375 C 171.081 197.123,171.050 197.329,171.050 197.833 M165.542 199.417 C 165.544 199.783,165.578 199.914,165.618 199.706 C 165.658 199.499,165.656 199.199,165.615 199.040 C 165.573 198.880,165.540 199.050,165.542 199.417 M171.205 200.000 C 171.205 200.321,171.240 200.452,171.282 200.292 C 171.323 200.131,171.323 199.869,171.282 199.708 C 171.240 199.548,171.205 199.679,171.205 200.000 M134.573 202.875 L 134.083 203.417 134.625 202.927 C 134.923 202.658,135.167 202.414,135.167 202.385 C 135.167 202.257,135.029 202.370,134.573 202.875 M171.205 204.667 C 171.205 204.987,171.240 205.119,171.282 204.958 C 171.323 204.798,171.323 204.535,171.282 204.375 C 171.240 204.215,171.205 204.346,171.205 204.667 M171.042 207.250 C 171.044 207.617,171.078 207.747,171.118 207.540 C 171.158 207.332,171.156 207.032,171.115 206.873 C 171.073 206.714,171.040 206.883,171.042 207.250 M328.073 210.375 L 327.583 210.917 328.125 210.427 C 328.630 209.971,328.743 209.833,328.615 209.833 C 328.586 209.833,328.342 210.077,328.073 210.375 M168.667 215.167 C 168.480 215.533,168.364 215.833,168.410 215.833 C 168.456 215.833,168.646 215.533,168.833 215.167 C 169.020 214.800,169.136 214.500,169.090 214.500 C 169.044 214.500,168.854 214.800,168.667 215.167 M149.740 231.208 L 149.250 231.750 149.792 231.260 C 150.297 230.804,150.410 230.667,150.281 230.667 C 150.252 230.667,150.009 230.910,149.740 231.208 M155.995 232.125 L 154.917 233.250 156.042 232.171 C 157.087 231.170,157.243 231.000,157.120 231.000 C 157.095 231.000,156.588 231.506,155.995 232.125 M137.000 277.750 C 136.884 277.889,136.866 278.000,136.959 278.000 C 137.051 278.000,137.219 277.887,137.333 277.750 C 137.449 277.611,137.467 277.500,137.374 277.500 C 137.282 277.500,137.114 277.612,137.000 277.750 M134.667 279.833 C 134.438 280.013,134.332 280.161,134.433 280.163 C 134.533 280.165,134.751 280.017,134.917 279.833 C 135.297 279.413,135.204 279.413,134.667 279.833 M130.991 283.125 L 130.417 283.750 131.042 283.176 C 131.623 282.641,131.743 282.500,131.616 282.500 C 131.588 282.500,131.307 282.781,130.991 283.125 " stroke="none" fill="#7c7c7c" fill-rule="evenodd"></path><path id="path3" d="M179.872 90.500 C 179.872 90.821,179.906 90.952,179.948 90.792 C 179.990 90.631,179.990 90.369,179.948 90.208 C 179.906 90.048,179.872 90.179,179.872 90.500 M269.627 127.618 C 269.834 127.658,270.134 127.656,270.294 127.615 C 270.453 127.573,270.283 127.540,269.917 127.542 C 269.550 127.544,269.420 127.578,269.627 127.618 M94.039 142.000 C 94.039 142.321,94.073 142.452,94.115 142.292 C 94.157 142.131,94.157 141.869,94.115 141.708 C 94.073 141.548,94.039 141.679,94.039 142.000 M221.550 151.000 C 221.550 151.504,221.581 151.710,221.619 151.458 C 221.658 151.206,221.658 150.794,221.619 150.542 C 221.581 150.290,221.550 150.496,221.550 151.000 M317.960 196.285 C 318.168 196.324,318.468 196.323,318.627 196.281 C 318.786 196.239,318.617 196.207,318.250 196.209 C 317.883 196.211,317.753 196.245,317.960 196.285 M165.545 198.167 C 165.545 198.579,165.578 198.748,165.618 198.542 C 165.657 198.335,165.657 197.998,165.618 197.792 C 165.578 197.585,165.545 197.754,165.545 198.167 M165.583 219.138 C 165.620 219.176,165.542 219.315,165.409 219.448 C 164.936 219.921,165.175 220.021,165.667 219.556 C 166.259 218.997,166.253 219.014,165.840 219.045 C 165.661 219.059,165.545 219.101,165.583 219.138 M151.083 229.500 C 151.027 229.592,151.036 229.667,151.105 229.667 C 151.173 229.667,151.009 229.910,150.740 230.208 L 150.251 230.750 150.875 230.176 C 151.219 229.860,151.500 229.541,151.500 229.467 C 151.500 229.278,151.206 229.301,151.083 229.500 M115.375 235.417 C 115.377 235.783,115.411 235.914,115.451 235.706 C 115.491 235.499,115.490 235.199,115.448 235.040 C 115.406 234.880,115.374 235.050,115.375 235.417 " stroke="none" fill="#9c9c9c" fill-rule="evenodd"></path><path id="path4" d="M270.057 66.583 C 270.058 67.317,270.087 67.596,270.122 67.204 C 270.157 66.812,270.157 66.212,270.121 65.871 C 270.085 65.529,270.057 65.850,270.057 66.583 M46.061 80.250 C 46.061 81.167,46.089 81.520,46.123 81.036 C 46.157 80.552,46.156 79.802,46.122 79.369 C 46.088 78.937,46.060 79.333,46.061 80.250 M48.872 90.333 C 48.872 90.654,48.906 90.785,48.948 90.625 C 48.990 90.465,48.990 90.202,48.948 90.042 C 48.906 89.881,48.872 90.013,48.872 90.333 M45.542 91.917 C 45.544 92.283,45.578 92.414,45.618 92.206 C 45.658 91.999,45.656 91.699,45.615 91.540 C 45.573 91.380,45.540 91.550,45.542 91.917 M86.883 97.833 C 86.883 98.337,86.915 98.544,86.953 98.292 C 86.991 98.040,86.991 97.627,86.953 97.375 C 86.915 97.123,86.883 97.329,86.883 97.833 M48.542 98.083 C 48.544 98.450,48.578 98.580,48.618 98.373 C 48.658 98.166,48.656 97.866,48.615 97.706 C 48.573 97.547,48.540 97.717,48.542 98.083 M48.539 103.000 C 48.539 103.321,48.573 103.452,48.615 103.292 C 48.657 103.131,48.657 102.869,48.615 102.708 C 48.573 102.548,48.539 102.679,48.539 103.000 M99.073 116.875 L 98.583 117.417 99.125 116.927 C 99.423 116.658,99.667 116.414,99.667 116.385 C 99.667 116.257,99.529 116.370,99.073 116.875 M163.167 117.583 C 162.762 117.996,162.468 118.333,162.514 118.333 C 162.560 118.333,162.928 117.996,163.333 117.583 C 163.738 117.171,164.032 116.833,163.986 116.833 C 163.940 116.833,163.572 117.171,163.167 117.583 M96.824 119.125 L 96.250 119.750 96.875 119.176 C 97.457 118.641,97.577 118.500,97.449 118.500 C 97.422 118.500,97.140 118.781,96.824 119.125 M161.073 119.708 L 160.583 120.250 161.125 119.760 C 161.630 119.304,161.743 119.167,161.615 119.167 C 161.586 119.167,161.342 119.410,161.073 119.708 M244.406 122.875 L 243.917 123.417 244.458 122.927 C 244.963 122.471,245.077 122.333,244.948 122.333 C 244.919 122.333,244.675 122.577,244.406 122.875 M334.390 125.917 C 334.391 126.650,334.420 126.929,334.456 126.537 C 334.491 126.145,334.490 125.545,334.454 125.204 C 334.419 124.863,334.390 125.183,334.390 125.917 M267.244 133.542 L 266.417 134.417 267.292 133.590 C 267.773 133.135,268.167 132.741,268.167 132.715 C 268.167 132.590,268.012 132.729,267.244 133.542 M94.039 141.000 C 94.039 141.321,94.073 141.452,94.115 141.292 C 94.157 141.131,94.157 140.869,94.115 140.708 C 94.073 140.548,94.039 140.679,94.039 141.000 M94.388 142.083 C 94.389 142.725,94.419 142.967,94.455 142.621 C 94.491 142.275,94.490 141.750,94.454 141.455 C 94.417 141.159,94.387 141.442,94.388 142.083 M94.039 143.000 C 94.039 143.321,94.073 143.452,94.115 143.292 C 94.157 143.131,94.157 142.869,94.115 142.708 C 94.073 142.548,94.039 142.679,94.039 143.000 M84.552 143.750 C 84.553 144.300,84.584 144.505,84.621 144.205 C 84.658 143.906,84.657 143.456,84.619 143.205 C 84.581 142.955,84.551 143.200,84.552 143.750 M281.899 146.333 C 281.899 147.571,281.925 148.077,281.957 147.458 C 281.989 146.840,281.989 145.827,281.957 145.208 C 281.925 144.590,281.899 145.096,281.899 146.333 M175.740 152.542 L 175.250 153.083 175.792 152.594 C 176.297 152.138,176.410 152.000,176.281 152.000 C 176.252 152.000,176.009 152.244,175.740 152.542 M330.377 153.512 C 330.285 153.976,330.268 154.295,330.338 154.220 C 330.483 154.065,330.737 152.667,330.620 152.667 C 330.578 152.667,330.469 153.047,330.377 153.512 M174.406 153.875 L 173.917 154.417 174.458 153.927 C 174.963 153.471,175.077 153.333,174.948 153.333 C 174.919 153.333,174.675 153.577,174.406 153.875 M249.494 154.792 L 248.583 155.750 249.542 154.839 C 250.432 153.993,250.576 153.833,250.453 153.833 C 250.427 153.833,249.995 154.265,249.494 154.792 M199.875 157.448 C 200.035 157.490,200.298 157.490,200.458 157.448 C 200.619 157.406,200.487 157.372,200.167 157.372 C 199.846 157.372,199.715 157.406,199.875 157.448 M200.625 160.454 C 200.923 160.491,201.410 160.491,201.708 160.454 C 202.006 160.417,201.762 160.387,201.167 160.387 C 200.571 160.387,200.327 160.417,200.625 160.454 M272.573 162.042 L 272.083 162.583 272.625 162.094 C 273.130 161.638,273.243 161.500,273.115 161.500 C 273.086 161.500,272.842 161.744,272.573 162.042 M262.542 166.453 C 262.794 166.491,263.206 166.491,263.458 166.453 C 263.710 166.415,263.504 166.383,263.000 166.383 C 262.496 166.383,262.290 166.415,262.542 166.453 M308.292 194.287 C 308.590 194.324,309.077 194.324,309.375 194.287 C 309.673 194.250,309.429 194.220,308.833 194.220 C 308.237 194.220,307.994 194.250,308.292 194.287 M314.794 194.451 C 315.001 194.491,315.301 194.490,315.460 194.448 C 315.620 194.406,315.450 194.374,315.083 194.375 C 314.717 194.377,314.586 194.411,314.794 194.451 M299.875 194.615 C 300.035 194.657,300.298 194.657,300.458 194.615 C 300.619 194.573,300.487 194.539,300.167 194.539 C 299.846 194.539,299.715 194.573,299.875 194.615 M316.375 196.286 C 316.627 196.324,317.040 196.324,317.292 196.286 C 317.544 196.248,317.337 196.217,316.833 196.217 C 316.329 196.217,316.123 196.248,316.375 196.286 M139.906 197.375 L 139.417 197.917 139.958 197.427 C 140.256 197.158,140.500 196.914,140.500 196.885 C 140.500 196.757,140.362 196.870,139.906 197.375 M171.111 198.944 C 171.050 199.006,171.008 199.324,171.017 199.653 L 171.033 200.250 171.186 199.600 C 171.340 198.945,171.316 198.739,171.111 198.944 M141.913 201.542 L 140.583 202.917 141.958 201.587 C 142.715 200.856,143.333 200.237,143.333 200.212 C 143.333 200.091,143.147 200.265,141.913 201.542 M136.240 201.042 L 135.750 201.583 136.292 201.094 C 136.797 200.638,136.910 200.500,136.781 200.500 C 136.752 200.500,136.509 200.744,136.240 201.042 M171.000 205.306 C 171.000 205.688,171.078 206.000,171.174 206.000 C 171.285 206.000,171.307 205.771,171.235 205.375 C 171.079 204.510,171.000 204.487,171.000 205.306 M328.073 212.208 L 327.583 212.750 328.125 212.260 C 328.630 211.804,328.743 211.667,328.615 211.667 C 328.586 211.667,328.342 211.910,328.073 212.208 M120.375 234.583 C 120.377 234.950,120.411 235.080,120.451 234.873 C 120.491 234.666,120.490 234.366,120.448 234.206 C 120.406 234.047,120.374 234.217,120.375 234.583 M138.810 238.161 C 138.594 238.341,138.499 238.491,138.599 238.494 C 138.700 238.498,138.917 238.350,139.083 238.167 C 139.469 237.740,139.319 237.737,138.810 238.161 M137.583 239.245 C 137.308 239.470,137.164 239.657,137.263 239.661 C 137.361 239.664,137.618 239.479,137.833 239.250 C 138.331 238.721,138.226 238.718,137.583 239.245 M130.661 246.506 C 130.182 247.059,129.818 247.536,129.853 247.565 C 129.888 247.593,130.315 247.141,130.801 246.558 C 131.927 245.212,131.818 245.171,130.661 246.506 M256.167 252.083 C 255.622 252.394,255.813 252.398,256.523 252.090 C 256.831 251.956,256.971 251.846,256.833 251.846 C 256.696 251.845,256.396 251.952,256.167 252.083 M141.179 274.068 C 141.046 274.229,141.039 274.338,141.159 274.412 C 141.255 274.471,141.339 274.496,141.346 274.468 C 141.508 273.815,141.468 273.720,141.179 274.068 M138.846 276.068 C 138.712 276.229,138.706 276.338,138.825 276.412 C 138.921 276.471,139.006 276.496,139.013 276.468 C 139.175 275.815,139.135 275.720,138.846 276.068 M137.679 277.068 C 137.546 277.229,137.539 277.338,137.659 277.412 C 137.755 277.471,137.839 277.496,137.846 277.468 C 138.008 276.815,137.968 276.720,137.679 277.068 M126.801 286.792 C 126.483 287.162,126.290 287.500,126.395 287.500 C 126.440 287.500,126.638 287.275,126.833 287.000 C 127.222 286.455,127.202 286.325,126.801 286.792 M124.696 288.719 C 124.280 289.162,124.205 289.481,124.592 289.159 C 124.846 288.949,125.238 288.333,125.118 288.333 C 125.085 288.333,124.895 288.507,124.696 288.719 M122.049 291.266 L 121.083 292.199 122.125 291.324 C 122.698 290.844,123.167 290.424,123.167 290.392 C 123.167 290.230,122.934 290.412,122.049 291.266 M118.697 294.458 C 117.123 296.019,117.114 296.031,118.487 294.759 C 119.273 294.030,120.065 293.299,120.245 293.134 C 120.426 292.969,120.520 292.833,120.455 292.833 C 120.389 292.833,119.598 293.565,118.697 294.458 M106.165 306.625 L 103.250 309.583 106.208 306.668 C 107.835 305.065,109.167 303.734,109.167 303.710 C 109.167 303.591,108.873 303.876,106.165 306.625 " stroke="none" fill="#bcbcbc" fill-rule="evenodd"></path></g></svg>